<svg width="265" height="187" viewBox="0 0 265 187" fill="none" xmlns="http://www.w3.org/2000/svg">
<path fill-rule="evenodd" clip-rule="evenodd" d="M13.2415 71.4723C10.4034 68.556 8.70508 64.3539 8.70508 59.2934C8.70508 47.4569 17.986 35.3621 29.4172 32.3172C34.2491 30.9877 38.6973 31.5466 42.2216 33.4765L42.2293 33.4329L83.8285 57.2345L83.7951 57.2781C90.4488 60.8805 94.7271 68.1268 94.7271 77.5617C94.7271 93.7725 81.987 110.37 66.2951 114.616C55.9292 117.361 46.8516 114.059 41.8845 106.811L41.8223 106.853L13.2415 71.4723Z" fill="#00544D"/>
<path fill-rule="evenodd" clip-rule="evenodd" d="M24.4121 34.3189C26.0154 33.4638 27.69 32.8219 29.4074 32.3231C34.2387 31.0404 38.6924 31.5375 42.2126 33.4615H42.2197L83.8207 57.2637L83.7851 57.3333C90.4406 60.8962 94.7234 68.1663 94.7234 77.5725C94.7234 93.8196 81.9822 110.423 66.291 114.627C60.234 116.266 54.6117 115.767 50.0013 113.7C64.3029 108.285 75.4835 92.8219 75.4835 77.5725C75.4835 68.1663 71.2007 60.8962 64.5452 57.3333L64.5808 57.2637L24.4121 34.3189Z" fill="#008A7E"/>
<path fill-rule="evenodd" clip-rule="evenodd" d="M41.0235 108.053C46.3718 115.473 55.8479 118.861 66.6632 115.987C82.9384 111.613 96.1515 94.3722 96.1515 77.5609C96.1515 67.6972 91.7 60.1078 84.8249 56.2052C84.7396 56.1194 42.9058 32.231 42.9058 32.231C39.0903 30.1296 34.2785 29.5302 29.0477 30.9026C17.0332 34.1619 7.2793 46.8557 7.2793 59.2926C7.2793 64.7391 9.12982 69.284 12.1764 72.4147C12.1764 72.4147 40.9073 107.968 41.0235 108.053ZM41.536 34.7187C41.5819 34.7187 83.3239 58.649 83.1151 58.5203C89.3477 61.9083 93.3009 68.7265 93.3009 77.5609C93.3009 93.1714 81.0347 109.168 65.9256 113.2C56.2253 115.816 47.7077 112.771 43.0602 105.995C43.0602 105.995 14.292 70.4848 14.2611 70.4848C11.6575 67.783 10.1295 63.9243 10.1295 59.2926C10.1295 48.0565 18.9369 36.5635 29.7853 33.6901C34.2189 32.4893 38.3024 32.9175 41.536 34.7187Z" fill="#00544D"/>
<path fill-rule="evenodd" clip-rule="evenodd" d="M45.1433 35.7301C47.6522 32.4208 51.1781 30.122 55.1644 29.0563C72.0587 24.6252 137.732 7.2929 157.13 2.24479C162.494 0.786445 168.208 1.96434 172.607 5.32974C180.956 11.724 195.15 22.6616 205.85 30.8507C209.626 33.7674 212.097 38.0298 212.718 42.7414C213.34 47.453 212.06 52.2202 209.163 56.0343C196.839 72.0761 177.464 97.318 169.375 107.863C166.949 111.004 163.541 113.304 159.686 114.313C143.053 118.688 77.463 135.962 57.8085 141.123C52.2606 142.581 46.3515 141.349 41.8015 137.871C33.5507 131.533 19.8226 121.044 9.28502 112.911C1.15142 106.685 -0.382651 95.0169 5.85848 86.8839C18.1315 70.8982 37.0625 46.219 45.1433 35.7301Z" fill="#65C490" stroke="#00544D" stroke-width="0.000983914" stroke-miterlimit="1.5" stroke-linecap="round" stroke-linejoin="round"/>
<path fill-rule="evenodd" clip-rule="evenodd" d="M20.9416 121.512L20.7996 121.796L9.25554 112.888C1.13203 106.689 -0.435527 95.0025 5.83525 86.879C18.0918 70.917 37.0464 46.1895 45.0986 35.7145C46.025 34.5031 47.0941 33.4342 48.2343 32.5078L63.4123 41.6295L62.4861 43.269C61.3459 44.1954 60.2058 45.3339 59.2794 46.5453C51.2272 57.0916 32.2719 81.7478 20.0154 97.7098C14.4572 104.978 15.0271 114.956 20.9416 121.512Z" fill="url(#paint0_linear_1984_335)"/>
<path fill-rule="evenodd" clip-rule="evenodd" d="M44.0126 34.8333C35.9317 45.3783 17.0002 70.0583 4.72717 86.044C-1.99297 94.7941 -0.341117 107.358 8.41677 114.089C18.9544 122.166 32.6824 132.656 40.9333 138.994C45.8327 142.752 52.195 144.042 58.1691 142.472C77.8236 137.367 143.414 120.035 160.047 115.66C164.208 114.594 167.887 112.126 170.506 108.761C178.594 98.2156 197.969 72.9189 210.293 56.8772C213.421 52.7826 214.802 47.6784 214.131 42.5742C213.46 37.47 210.793 32.8715 206.717 29.7304C196.017 21.4852 181.823 10.6037 173.474 4.20943C168.725 0.563572 162.558 -0.67041 156.768 0.844022C137.37 5.94822 71.6964 23.2244 54.8026 27.6555C50.5101 28.7773 46.7139 31.2996 44.0126 34.8333ZM46.2736 36.573C48.5901 33.5441 51.845 31.4127 55.5251 30.4031C72.4194 26.028 138.092 8.69576 157.49 3.59156C162.429 2.30149 167.689 3.36808 171.739 6.45303C180.087 12.9034 194.282 23.7849 204.981 31.974C208.458 34.6664 210.733 38.5927 211.305 42.9116C211.876 47.2866 210.699 51.6621 208.031 55.1397C195.708 71.1815 176.333 96.4781 168.244 107.023C166.011 109.884 162.873 112.015 159.325 112.912C142.692 117.288 77.1012 134.562 57.4467 139.722C52.3246 141.068 46.8693 140.004 42.6687 136.751C34.4178 130.413 20.6898 119.868 10.1522 111.791C2.64287 106.013 1.2266 95.2998 6.98873 87.7837C19.2618 71.798 38.1927 47.1179 46.2736 36.573Z" fill="#00544D"/>
<path fill-rule="evenodd" clip-rule="evenodd" d="M59.3113 46.5545C61.8202 43.2452 65.346 40.9464 69.3324 39.8807C86.2267 35.4496 152.934 17.8368 172.332 12.7887C177.697 11.3304 183.41 12.5083 187.81 15.8737C196.158 22.268 210.352 33.2055 221.052 41.3947C224.828 44.3114 227.299 48.5738 227.921 53.2854C228.542 57.9969 227.263 62.7641 224.365 66.5783C212.042 82.62 192.666 107.862 184.578 118.407C182.152 121.548 178.743 123.848 174.889 124.857C158.256 129.232 91.6309 146.787 71.9765 151.947C66.4286 153.405 60.5195 152.173 55.9695 148.695C47.7187 142.357 33.9906 131.868 23.453 123.735C15.3194 117.509 13.7853 105.841 20.0265 97.7083C32.2995 81.7226 51.2304 57.0434 59.3113 46.5545Z" fill="url(#paint1_linear_1984_335)" stroke="#00544D" stroke-width="0.000983914" stroke-miterlimit="1.5" stroke-linecap="round" stroke-linejoin="round"/>
<path fill-rule="evenodd" clip-rule="evenodd" d="M58.1806 45.6577C50.0997 56.2026 31.1682 80.8827 18.8951 96.8684C12.175 105.618 13.8269 118.183 22.5847 124.913C33.1224 132.99 46.8504 143.481 55.1012 149.819C60.0007 153.577 66.363 154.866 72.3371 153.296C91.9916 148.192 158.616 130.579 175.249 126.204C179.41 125.138 183.09 122.67 185.708 119.304C193.797 108.76 213.172 83.4629 225.495 67.4211C228.623 63.3265 230.004 58.2223 229.333 53.1181C228.662 48.0139 225.996 43.4154 221.919 40.2744C211.219 32.0291 197.025 21.1476 188.676 14.7534C183.928 11.1075 177.76 9.87353 171.97 11.388C152.572 16.4922 85.8643 34.0488 68.9706 38.4799C64.678 39.6017 60.8819 42.124 58.1806 45.6577ZM60.4416 47.3974C62.7581 44.3685 66.013 42.2371 69.693 41.2275C86.5873 36.8524 153.295 19.2397 172.693 14.1355C177.631 12.8454 182.891 13.912 186.941 16.997C195.29 23.4473 209.484 34.3288 220.184 42.518C223.661 45.2103 225.935 49.1366 226.507 53.4555C227.079 57.8306 225.901 62.206 223.234 65.6836C210.91 81.7815 191.535 107.022 183.447 117.567C181.213 120.484 178.075 122.559 174.527 123.456C157.894 127.831 91.2692 145.386 71.6147 150.546C66.4925 151.892 61.0372 150.828 56.8367 147.575C48.5858 141.237 34.8578 130.692 24.3202 122.615C16.8108 116.838 15.3946 106.124 21.1567 98.6081C33.4297 82.6224 52.3607 57.9423 60.4416 47.3974Z" fill="#00544D"/>
<path fill-rule="evenodd" clip-rule="evenodd" d="M31.8391 132C40.269 138.484 34.9671 131.429 34.9671 131.429C34.0479 130.717 33.9485 129.934 32.5162 129.007C25.597 124.803 27.4568 112.546 32.5162 105.99C44.787 89.957 63.7204 65.2997 71.8011 54.7534C74.1171 51.7605 77.3732 49.5532 81.0502 48.6268C97.9457 44.2087 164.658 26.6067 184.055 21.476C187.019 20.7634 190.105 19.4101 192.977 21.6904C193.034 21.6904 193.119 21.6915 193.197 21.7627C193.853 21.9052 194.566 21.6202 194.886 21.0501C195.207 20.4088 195.036 19.6962 194.488 19.2687L188.658 14.7788C185.679 12.4985 182.138 11.1446 178.483 10.8595C176.317 10.6458 174.107 10.8601 171.955 11.4302C152.559 16.4896 85.8461 34.0905 68.9578 38.5086C64.6608 39.6487 60.8625 42.1411 58.1618 45.7041C50.081 56.1791 31.1547 80.9066 18.8768 96.8686C12.1571 105.633 13.8101 118.176 22.5678 124.874C25.4752 127.154 28.6325 129.577 31.8391 132Z" fill="#00544D"/>
<path fill-rule="evenodd" clip-rule="evenodd" d="M150.983 98.9416C147.066 94.9173 144.723 89.1186 144.723 82.1353C144.723 65.8016 157.53 49.1114 173.304 44.9096C179.972 43.075 186.11 43.8462 190.974 46.5093L190.984 46.4492L248.389 79.2942L248.343 79.3543C257.525 84.3255 263.429 94.3251 263.429 107.345C263.429 129.715 245.848 152.619 224.194 158.478C209.89 162.265 197.363 157.709 190.509 147.707L190.423 147.765L150.983 98.9416Z" fill="#65C490"/>
<path fill-rule="evenodd" clip-rule="evenodd" d="M190.499 147.672L190.413 147.814L150.972 98.9315C147.059 94.941 144.715 89.0967 144.715 82.1133C144.715 74.7736 147.309 67.3616 151.599 61.0195C152.867 62.8723 154.378 64.5134 156.081 65.7961C156.081 65.7961 176.774 85.1073 187.392 95.0123C190.805 98.2189 191.789 103.206 189.829 107.41C186.715 114.109 184.948 121.233 184.948 128.359C184.948 135.984 186.978 142.541 190.499 147.672Z" fill="url(#paint2_linear_1984_335)"/>
<path d="M224.195 148.124C240.346 143.797 253.439 126.734 253.439 110.013C253.439 93.2922 240.346 83.2456 224.195 87.5733C208.044 91.9009 194.951 108.964 194.951 125.685C194.951 142.405 208.044 152.452 224.195 148.124Z" fill="#008A7E"/>
<path fill-rule="evenodd" clip-rule="evenodd" d="M196.104 129.156L209.718 111.453C210.863 109.977 212.627 109.091 214.509 109.032C216.392 108.973 218.186 109.801 219.396 111.218L227.811 121.307C228.289 121.897 228.991 122.252 229.735 122.252C230.478 122.311 231.204 122.016 231.735 121.485L244.033 109.21C244.128 110.095 244.175 110.981 244.175 111.925C244.175 112.692 244.146 113.401 244.081 114.168L234.237 123.963C233.004 125.202 231.31 125.852 229.575 125.793C227.84 125.734 226.211 124.907 225.096 123.55C222.647 120.659 219.236 116.587 216.681 113.518C216.162 112.869 215.389 112.573 214.58 112.573C213.772 112.573 213.016 112.988 212.527 113.578L197.313 133.405C196.782 132.047 196.369 130.632 196.104 129.156Z" fill="#65C490"/>
<path fill-rule="evenodd" clip-rule="evenodd" d="M226.556 85.5192C225.879 85.6617 225.38 86.2318 225.373 86.9444C225.373 87.657 225.858 88.227 226.535 88.3696C226.62 88.3696 226.705 88.4408 226.791 88.3696C235.527 86.9444 242.753 98.4889 242.753 109.962C242.753 126.066 230.119 142.525 214.563 146.73C213.729 146.943 212.896 147.088 212.083 147.231C211.406 147.373 210.908 147.943 210.9 148.656C210.9 149.368 211.385 149.938 212.062 150.081C215.881 150.794 220.114 150.649 224.568 149.438C241.285 144.949 254.867 127.278 254.867 109.962C254.867 101.624 251.725 94.853 246.644 90.435C241.549 86.0882 234.48 84.1653 226.556 85.5192Z" fill="#00544D"/>
<path fill-rule="evenodd" clip-rule="evenodd" d="M223.825 86.1829C207.102 90.6638 193.525 108.362 193.525 125.706C193.525 134.532 197.041 141.595 202.652 145.941C208.264 150.236 216.007 151.805 224.563 149.513C241.286 145.032 254.863 127.334 254.863 109.99C254.863 101.164 251.348 94.099 245.736 89.7529C240.125 85.458 232.381 83.8904 223.825 86.1829ZM224.563 88.9618C232.148 86.9295 239.026 88.2154 244.001 92.0138C248.976 95.8635 252.013 102.183 252.013 110.034C252.013 126.095 239.382 142.565 223.825 146.734C216.241 148.766 209.363 147.478 204.387 143.68C199.412 139.83 196.376 133.513 196.376 125.662C196.376 109.6 209.006 93.1304 224.563 88.9618Z" fill="#00544D"/>
<path fill-rule="evenodd" clip-rule="evenodd" d="M249.892 78.5891C249.739 78.5299 248.845 77.9372 248.845 77.9372L191.658 45.2702C186.503 42.4295 180.002 41.601 172.935 43.4948C156.577 47.8741 143.297 65.2144 143.297 82.1399C143.297 89.5375 145.793 95.633 149.917 99.894L189.365 148.54C196.545 159.015 209.615 163.809 224.563 159.844C246.8 153.867 264.853 130.37 264.853 107.349C264.853 94.1521 258.999 83.9745 249.892 78.5891ZM190.288 47.7553C190.341 47.7553 241.796 77.1679 247.22 80.3044C247.522 80.4228 248.02 80.837 248.197 80.8962C256.65 85.749 262.002 95.1582 262.002 107.349C262.002 129.128 244.896 151.439 223.825 157.061C210.185 160.73 198.219 156.41 191.684 146.882C191.663 146.823 152.032 97.9998 152.002 97.9406C148.32 94.1531 146.147 88.7089 146.147 82.1399C146.147 66.398 158.481 50.3592 173.672 46.2758C179.942 44.5596 185.715 45.2106 190.288 47.7553Z" fill="#00544D"/>
<path fill-rule="evenodd" clip-rule="evenodd" d="M65.8324 123.804C61.9158 119.78 59.5723 113.981 59.5723 106.998C59.5723 90.6639 72.3794 73.9737 88.1539 69.7719C94.8218 67.9373 100.96 68.7085 105.823 71.3716L105.834 71.3115L163.239 104.157L163.193 104.217C172.374 109.188 178.278 119.187 178.278 132.207C178.278 154.577 160.698 177.481 139.044 183.34C124.739 187.128 112.212 182.571 105.358 172.57L105.272 172.628L65.8324 123.804Z" fill="#65C490"/>
<path fill-rule="evenodd" clip-rule="evenodd" d="M105.348 172.529L105.263 172.671L65.8212 123.789C61.9091 119.798 59.5645 113.954 59.5645 106.971C59.5645 99.631 62.1584 92.219 66.4482 85.877C67.7166 87.7297 69.2273 89.3709 70.9304 90.6535C70.9304 90.6535 91.6239 109.965 102.241 119.87C105.655 123.076 106.638 128.063 104.678 132.268C101.564 138.966 99.7972 146.091 99.7972 153.217C99.7972 160.841 101.828 167.398 105.348 172.529Z" fill="url(#paint3_linear_1984_335)"/>
<path d="M139.045 172.982C155.195 168.654 168.288 151.591 168.288 134.87C168.288 118.15 155.195 108.103 139.045 112.431C122.894 116.758 109.801 133.821 109.801 150.542C109.801 167.263 122.894 177.309 139.045 172.982Z" fill="#008A7E"/>
<path fill-rule="evenodd" clip-rule="evenodd" d="M110.953 154.016L124.567 136.312C125.712 134.837 127.477 133.951 129.359 133.892C131.241 133.833 133.036 134.661 134.245 136.077L142.66 146.167C143.138 146.757 143.841 147.112 144.584 147.112C145.328 147.171 146.054 146.875 146.585 146.344L158.883 134.069C158.977 134.954 159.024 135.84 159.024 136.785C159.024 137.552 158.995 138.26 158.93 139.028L149.087 148.822C147.854 150.061 146.16 150.711 144.425 150.652C142.69 150.593 141.061 149.767 139.946 148.41C137.497 145.518 134.086 141.446 131.531 138.377C131.011 137.728 130.238 137.432 129.43 137.432C128.621 137.432 127.866 137.847 127.376 138.437L112.163 158.264C111.632 156.907 111.219 155.491 110.953 154.016Z" fill="#65C490"/>
<path fill-rule="evenodd" clip-rule="evenodd" d="M141.405 110.376C140.728 110.518 140.229 111.088 140.222 111.801C140.222 112.513 140.708 113.083 141.385 113.226C141.47 113.226 141.555 113.297 141.641 113.226C150.377 111.801 157.603 123.345 157.603 134.818C157.603 150.923 144.968 167.382 129.412 171.586C128.579 171.8 127.745 171.945 126.933 172.087C126.256 172.23 125.757 172.8 125.75 173.512C125.75 174.225 126.234 174.795 126.911 174.937C130.731 175.65 134.964 175.506 139.417 174.294C156.135 169.805 169.717 152.134 169.717 134.818C169.717 126.481 166.574 119.709 161.494 115.291C156.399 110.945 149.329 109.022 141.405 110.376Z" fill="#00544D"/>
<path fill-rule="evenodd" clip-rule="evenodd" d="M138.675 111.04C121.952 115.521 108.375 133.219 108.375 150.563C108.375 159.389 111.89 166.452 117.502 170.798C123.114 175.093 130.857 176.663 139.413 174.37C156.136 169.889 169.713 152.192 169.713 134.847C169.713 126.021 166.198 118.956 160.586 114.61C154.974 110.315 147.231 108.748 138.675 111.04ZM139.413 113.819C146.997 111.787 153.876 113.073 158.851 116.871C163.826 120.721 166.862 127.04 166.862 134.891C166.862 150.953 154.232 167.423 138.675 171.591C131.09 173.624 124.212 172.336 119.237 168.537C114.262 164.688 111.225 158.37 111.225 150.519C111.225 134.458 123.856 117.988 139.413 113.819Z" fill="#00544D"/>
<path fill-rule="evenodd" clip-rule="evenodd" d="M164.741 103.448C164.589 103.389 163.694 102.797 163.694 102.797L106.508 70.1296C101.353 67.2889 94.8512 66.4604 87.7845 68.3542C71.4265 72.7335 58.1465 90.0738 58.1465 106.999C58.1465 114.397 60.6427 120.492 64.767 124.753L104.215 173.399C111.394 183.874 124.464 188.668 139.412 184.703C161.649 178.726 179.703 155.23 179.703 132.209C179.703 119.012 173.849 108.834 164.741 103.448ZM105.138 72.6147C105.191 72.6147 156.646 102.027 162.07 105.164C162.372 105.282 162.87 105.696 163.046 105.756C171.499 110.608 176.852 120.018 176.852 132.209C176.852 153.987 159.745 176.298 138.674 181.92C125.035 185.589 113.069 181.27 106.533 171.742C106.512 171.682 66.8821 122.859 66.8519 122.8C63.1697 119.012 60.9966 113.568 60.9966 106.999C60.9966 91.2574 73.3304 75.2186 88.5219 71.1352C94.7915 69.4189 100.565 70.0699 105.138 72.6147Z" fill="#00544D"/>
<defs>
<linearGradient id="paint0_linear_1984_335" x1="40.1819" y1="47.5436" x2="-7.39363" y2="54.6873" gradientUnits="userSpaceOnUse">
<stop stop-color="#008A7E"/>
<stop offset="1" stop-color="#00796F"/>
</linearGradient>
<linearGradient id="paint1_linear_1984_335" x1="147.964" y1="35.8416" x2="82.4063" y2="139.879" gradientUnits="userSpaceOnUse">
<stop stop-color="#008A7E"/>
<stop offset="1" stop-color="#00796F"/>
</linearGradient>
<linearGradient id="paint2_linear_1984_335" x1="176.097" y1="88.8107" x2="164.362" y2="106.641" gradientUnits="userSpaceOnUse">
<stop stop-color="#008A7E"/>
<stop offset="1" stop-color="#00796F"/>
</linearGradient>
<linearGradient id="paint3_linear_1984_335" x1="90.9469" y1="113.668" x2="79.2112" y2="131.498" gradientUnits="userSpaceOnUse">
<stop stop-color="#008A7E"/>
<stop offset="1" stop-color="#00796F"/>
</linearGradient>
</defs>
</svg>
